<svg viewBox="0 0 96 96" xmlns="http://www.w3.org/2000/svg" xmlns:xlink="http://www.w3.org/1999/xlink" id="Icons_Detective" overflow="hidden"><path d="M76.8 59.6C74.0243 57.3922 70.9463 55.5938 67.66 54.26L63.42 59.55 64.61 60.34 66.12 61.34 65.26 63 55 82 80 82 80 66C79.9478 63.4946 78.773 61.1451 76.8 59.6Z"/><path d="M30.74 63 29.88 61.39 31.39 60.39 32.58 59.6 28.41 54.39C25.1674 55.8022 22.0808 57.5483 19.2 59.6 17.227 61.1451 16.0522 63.4946 16 66L16 82 41 82Z"/><path d="M67.26 23.7 63 23.7 58.59 10.49C58.2766 8.14151 56.1188 6.49174 53.7703 6.80511 52.8006 6.9345 51.9044 7.39138 51.23 8.1L51.23 8.1C49.4713 9.97139 46.5285 10.0627 44.6571 8.30396 44.6174 8.26666 44.5784 8.22867 44.54 8.19L44.24 7.89C42.5368 6.24302 39.8209 6.28863 38.1739 7.99188 37.5259 8.66196 37.1139 9.52485 37 10.45L32 23.7 27.74 23.7C26.4525 23.6748 25.3264 24.5623 25.05 25.82 24.7573 27.254 25.6825 28.6537 27.1165 28.9465 27.292 28.9823 27.4708 29.0002 27.65 29L67.35 29C68.8133 29.0296 70.0235 27.8674 70.0531 26.4042 70.0571 26.2081 70.0393 26.0122 70 25.82 69.7202 24.5433 68.5661 23.6503 67.26 23.7Z"/><path d="M50.45 55.75 52 49.75 44 49.75 45.55 55.75 50.45 55.75Z"/><path d="M68.5 50 57.17 43.09C60.8634 40.5015 63.2927 36.4743 63.86 32L32.14 32C32.7046 36.478 35.1342 40.5092 38.83 43.1L27.5 50 35.5 60 32.5 62 43.26 82 45.5 82 45.5 82 50.5 82 50.5 82 52.74 82 63.5 62 60.5 60ZM51.2 77.25 50.32 57.75 45.68 57.75 44.8 77.25 39.8 43.75C44.8361 46.7409 51.1039 46.7409 56.14 43.75Z"/></svg>